ply
format ascii 1.0
comment Created by Blender 2.79 (sub 0) - www.blender.org, source file: ''
element vertex 98
property float x
property float y
property float z
element face 192
property list uchar uint vertex_indices
end_header
0.097545 0.0 -0.490393
0.097545 1.0 -0.490393
0.144443 0.000000 -0.476166
0.191342 0.0 -0.461940
0.191342 1.0 -0.461940
0.234563 0.000000 -0.438837
0.277785 0.0 -0.415735
0.277785 1.0 -0.415735
0.315669 0.000000 -0.384644
0.353553 0.0 -0.353553
0.353553 1.0 -0.353553
0.384644 0.000000 -0.315669
0.415735 0.0 -0.277785
0.415735 1.0 -0.277785
0.438837 0.000000 -0.234563
0.461940 0.0 -0.191342
0.461940 1.0 -0.191342
0.476166 0.000000 -0.144443
0.490393 0.0 -0.097545
0.490393 1.0 -0.097545
0.495196 0.000000 -0.048773
0.500000 0.0 -0.000000
0.500000 1.0 -0.000000
0.495196 0.000000 0.048773
0.490393 0.0 0.097545
0.490393 1.0 0.097545
0.476166 0.000000 0.144443
0.461940 0.0 0.191342
0.461940 1.0 0.191342
0.438837 0.000000 0.234563
0.415735 0.0 0.277785
0.415735 1.0 0.277785
0.384644 0.000000 0.315669
0.353553 0.0 0.353553
0.353553 1.0 0.353553
0.315669 0.000000 0.384644
0.277785 0.0 0.415735
0.277785 1.0 0.415735
0.234563 0.000000 0.438837
0.191342 0.0 0.461940
0.191342 1.0 0.461940
0.144443 0.000000 0.476166
0.097545 0.0 0.490393
0.097545 1.0 0.490393
0.048772 0.000000 0.495196
-0.000000 0.0 0.500000
-0.000000 1.0 0.500000
-0.048773 0.000000 0.495196
-0.097545 0.0 0.490393
-0.097545 1.0 0.490393
-0.144444 0.000000 0.476166
-0.191342 0.0 0.461940
-0.191342 1.0 0.461940
-0.234564 0.000000 0.438837
-0.277785 0.0 0.415735
-0.277785 1.0 0.415735
-0.315669 0.000000 0.384644
-0.353554 0.0 0.353553
-0.353554 1.0 0.353553
-0.384644 0.000000 0.315669
-0.415735 0.0 0.277785
-0.415735 1.0 0.277785
-0.438837 0.000000 0.234563
-0.461940 0.0 0.191341
-0.461940 1.0 0.191341
-0.476166 0.000000 0.144443
-0.490393 0.0 0.097545
-0.490393 1.0 0.097545
-0.495196 0.000000 0.048772
-0.500000 0.0 -0.000000
-0.500000 1.0 -0.000000
-0.495196 0.000000 -0.048773
-0.490393 0.0 -0.097546
-0.490393 1.0 -0.097546
-0.476166 0.000000 -0.144444
-0.461940 0.0 -0.191342
-0.461940 1.0 -0.191342
-0.438837 0.000000 -0.234564
-0.415734 0.0 -0.277786
-0.415734 1.0 -0.277786
-0.384644 0.000000 -0.315670
-0.353553 0.0 -0.353554
-0.353553 1.0 -0.353554
-0.315669 0.000000 -0.384645
-0.277785 0.0 -0.415735
-0.277785 1.0 -0.415735
-0.234563 0.000000 -0.438838
0.000000 1.0 -0.500000
-0.000000 1.0 0.000000
-0.191341 0.0 -0.461940
-0.191341 1.0 -0.461940
-0.144443 0.000000 -0.476166
-0.097544 0.0 -0.490393
-0.097544 1.0 -0.490393
-0.048772 0.000000 -0.495196
0.000000 0.0 -0.500000
-0.000000 0.0 0.000000
0.048773 0.000000 -0.495196
3 0 1 2
3 3 4 5
3 6 7 8
3 9 10 11
3 12 13 14
3 15 16 17
3 18 19 20
3 21 22 23
3 24 25 26
3 27 28 29
3 30 31 32
3 33 34 35
3 36 37 38
3 39 40 41
3 42 43 44
3 45 46 47
3 48 49 50
3 51 52 53
3 54 55 56
3 57 58 59
3 60 61 62
3 63 64 65
3 66 67 68
3 69 70 71
3 72 73 74
3 75 76 77
3 78 79 80
3 81 82 83
3 84 85 86
3 1 87 88
3 89 90 91
3 92 93 94
3 95 0 96
3 95 87 97
3 87 1 97
3 1 0 97
3 0 95 97
3 1 4 2
3 4 3 2
3 3 0 2
3 4 7 5
3 7 6 5
3 6 3 5
3 7 10 8
3 10 9 8
3 9 6 8
3 10 13 11
3 13 12 11
3 12 9 11
3 13 16 14
3 16 15 14
3 15 12 14
3 16 19 17
3 19 18 17
3 18 15 17
3 19 22 20
3 22 21 20
3 21 18 20
3 22 25 23
3 25 24 23
3 24 21 23
3 25 28 26
3 28 27 26
3 27 24 26
3 28 31 29
3 31 30 29
3 30 27 29
3 31 34 32
3 34 33 32
3 33 30 32
3 34 37 35
3 37 36 35
3 36 33 35
3 37 40 38
3 40 39 38
3 39 36 38
3 40 43 41
3 43 42 41
3 42 39 41
3 43 46 44
3 46 45 44
3 45 42 44
3 46 49 47
3 49 48 47
3 48 45 47
3 49 52 50
3 52 51 50
3 51 48 50
3 52 55 53
3 55 54 53
3 54 51 53
3 55 58 56
3 58 57 56
3 57 54 56
3 58 61 59
3 61 60 59
3 60 57 59
3 61 64 62
3 64 63 62
3 63 60 62
3 64 67 65
3 67 66 65
3 66 63 65
3 67 70 68
3 70 69 68
3 69 66 68
3 70 73 71
3 73 72 71
3 72 69 71
3 73 76 74
3 76 75 74
3 75 72 74
3 76 79 77
3 79 78 77
3 78 75 77
3 79 82 80
3 82 81 80
3 81 78 80
3 82 85 83
3 85 84 83
3 84 81 83
3 85 90 86
3 90 89 86
3 89 84 86
3 87 93 88
3 93 90 88
3 90 85 88
3 85 82 88
3 82 79 88
3 79 76 88
3 76 73 88
3 73 70 88
3 70 67 88
3 67 64 88
3 64 61 88
3 61 58 88
3 58 55 88
3 55 52 88
3 52 49 88
3 49 46 88
3 46 43 88
3 43 40 88
3 40 37 88
3 37 34 88
3 34 31 88
3 31 28 88
3 28 25 88
3 25 22 88
3 22 19 88
3 19 16 88
3 16 13 88
3 13 10 88
3 10 7 88
3 7 4 88
3 4 1 88
3 90 93 91
3 93 92 91
3 92 89 91
3 93 87 94
3 87 95 94
3 95 92 94
3 0 3 96
3 3 6 96
3 6 9 96
3 9 12 96
3 12 15 96
3 15 18 96
3 18 21 96
3 21 24 96
3 24 27 96
3 27 30 96
3 30 33 96
3 33 36 96
3 36 39 96
3 39 42 96
3 42 45 96
3 45 48 96
3 48 51 96
3 51 54 96
3 54 57 96
3 57 60 96
3 60 63 96
3 63 66 96
3 66 69 96
3 69 72 96
3 72 75 96
3 75 78 96
3 78 81 96
3 81 84 96
3 84 89 96
3 89 92 96
3 92 95 96
